<svg width="25" height="59" viewBox="0 0 25 59" fill="none" xmlns="http://www.w3.org/2000/svg">
<path d="M78.8634 57.3781C78.8634 57.3781 78.2026 45.8581 69.9521 39.0039C61.5661 32.0371 45.5982 29.7168 41.2385 39.6879C38.8933 45.0517 39.6373 50.0007 44.7305 52.909C49.8066 55.8075 55.0483 54.2639 58.9124 49.8919C67.1852 40.5317 58.2785 24.5179 47.4518 18.2404C36.6034 11.9504 17.95 12.0858 14.0071 23.9659C12.163 29.5223 13.2469 34.9289 18.4093 37.7125C23.4696 40.4409 28.8617 39.0567 32.5912 34.6954C40.5482 25.3905 33.0351 8.60124 21.8892 3.48183C14.6116 0.139151 8.06269 0.696084 1.46802 5.2185" stroke="white" stroke-width="2" stroke-linecap="round"/>
</svg>
